<?xml version="1.0" standalone="no"?>
<!DOCTYPE svg PUBLIC "-//W3C//DTD SVG 20010904//EN"
 "http://www.w3.org/TR/2001/REC-SVG-20010904/DTD/svg10.dtd">
<svg version="1.0" xmlns="http://www.w3.org/2000/svg"
 width="257.000000pt" height="257.000000pt" viewBox="0 0 257.000000 257.000000"
 preserveAspectRatio="xMidYMid meet">
<metadata>
Created by potrace 1.11, written by Peter Selinger 2001-2013
</metadata>
<g transform="translate(0.000000,257.000000) scale(0.100000,-0.100000)"
fill="#000000" stroke="none">
<path d="M1513 2554 c-57 -21 -126 -84 -154 -141 -20 -43 -23 -65 -26 -220
l-3 -173 283 0 283 0 -1 158 c-1 86 -8 176 -14 199 -16 60 -67 121 -130 156
-65 37 -170 46 -238 21z"/>
<path d="M665 1628 l0 -273 835 -2 c802 -2 837 -1 885 17 58 23 118 77 148
134 32 62 33 167 2 232 -28 60 -72 107 -128 137 l-42 22 -850 3 -850 2 0 -272z"/>
<path d="M192 1215 c-122 -38 -193 -140 -188 -271 4 -114 69 -205 174 -244 51
-19 80 -20 885 -20 l832 0 0 275 0 275 -830 -1 c-663 0 -839 -3 -873 -14z"/>
<path d="M665 390 c2 -162 4 -172 29 -225 45 -91 126 -145 232 -153 116 -8
226 53 275 155 20 43 23 65 26 221 l3 172 -283 0 -284 0 2 -170z"/>
</g>
</svg>
