<?xml version="1.0" encoding="utf-8"?>
<!-- Generator: Adobe Illustrator 18.1.1, SVG Export Plug-In . SVG Version: 6.00 Build 0)  -->
<svg version="1.1" id="Layer_1" xmlns="http://www.w3.org/2000/svg" xmlns:xlink="http://www.w3.org/1999/xlink" x="0px" y="0px"
	 viewBox="0 0 192 30" enable-background="new 0 0 192 30" xml:space="preserve">
<g>
	<g>
		<path fill="#FFFFFF" d="M47.5,12.9c0-0.5,0.4-0.9,0.9-0.9c0.5,0,0.9,0.4,0.9,0.9v0.5c0.6-0.8,1.4-1.4,2.6-1.4c1.8,0,3.6,1.4,3.6,4
			v0c0,2.5-1.7,4-3.6,4c-1.3,0-2.1-0.6-2.6-1.4v2.7c0,0.5-0.4,0.9-0.9,0.9c-0.5,0-0.9-0.4-0.9-0.9V12.9z M53.7,15.9L53.7,15.9
			c0-1.5-1-2.5-2.2-2.5c-1.2,0-2.2,1-2.2,2.5v0c0,1.5,1,2.5,2.2,2.5C52.7,18.4,53.7,17.4,53.7,15.9z"/>
		<path fill="#FFFFFF" d="M60.3,19.9c-2.2,0-3.9-1.6-3.9-4v0c0-2.2,1.6-4,3.8-4c2.4,0,3.6,2,3.6,3.8c0,0.5-0.4,0.8-0.8,0.8h-4.8
			c0.2,1.3,1.1,1.9,2.2,1.9c0.7,0,1.3-0.3,1.8-0.7c0.1-0.1,0.2-0.2,0.5-0.2c0.4,0,0.7,0.3,0.7,0.7c0,0.2-0.1,0.4-0.2,0.5
			C62.4,19.5,61.5,19.9,60.3,19.9z M62.1,15.4c-0.1-1.1-0.8-2-1.9-2c-1.1,0-1.8,0.8-2,2H62.1z"/>
		<path fill="#FFFFFF" d="M64.9,12.9c0-0.5,0.4-0.9,0.9-0.9c0.5,0,0.9,0.4,0.9,0.9v0.4c0.5-0.7,1.2-1.3,2.4-1.3
			c1.7,0,2.7,1.2,2.7,2.9v4.1c0,0.5-0.4,0.9-0.9,0.9c-0.5,0-0.9-0.4-0.9-0.9v-3.6c0-1.2-0.6-1.9-1.6-1.9c-1,0-1.7,0.7-1.7,1.9v3.5
			c0,0.5-0.4,0.9-0.9,0.9c-0.5,0-0.9-0.4-0.9-0.9V12.9z"/>
		<path fill="#FFFFFF" d="M80.6,11.2h-2.5c-0.5,0-0.8-0.4-0.8-0.8c0-0.5,0.4-0.8,0.8-0.8h6.8c0.5,0,0.8,0.4,0.8,0.8
			c0,0.5-0.4,0.8-0.8,0.8h-2.5v7.7c0,0.5-0.4,0.9-0.9,0.9c-0.5,0-0.9-0.4-0.9-0.9V11.2z"/>
		<path fill="#FFFFFF" d="M85.1,17.5L85.1,17.5c0-1.7,1.3-2.5,3.2-2.5c0.9,0,1.5,0.1,2.1,0.3v-0.2c0-1.1-0.7-1.7-1.9-1.7
			c-0.7,0-1.2,0.1-1.7,0.3c-0.1,0-0.2,0-0.3,0c-0.4,0-0.7-0.3-0.7-0.7c0-0.3,0.2-0.6,0.5-0.7c0.7-0.3,1.5-0.5,2.5-0.5
			c1.1,0,2,0.3,2.5,0.9c0.6,0.6,0.8,1.4,0.8,2.4V19c0,0.5-0.4,0.8-0.9,0.8c-0.5,0-0.9-0.3-0.9-0.7v-0.3c-0.5,0.6-1.3,1.1-2.5,1.1
			C86.4,19.9,85.1,19.1,85.1,17.5z M90.4,17v-0.5c-0.5-0.2-1-0.3-1.7-0.3c-1.1,0-1.8,0.5-1.8,1.3v0c0,0.7,0.7,1.2,1.5,1.2
			C89.5,18.6,90.4,17.9,90.4,17z"/>
		<path fill="#FFFFFF" d="M93.6,12.9c0-0.5,0.4-0.9,0.9-0.9c0.5,0,0.9,0.4,0.9,0.9v0.8c0.4-1,1.2-1.7,1.9-1.7c0.6,0,0.9,0.4,0.9,0.9
			c0,0.5-0.3,0.8-0.7,0.8c-1.3,0.2-2.1,1.2-2.1,3v2.3c0,0.5-0.4,0.9-0.9,0.9c-0.5,0-0.9-0.4-0.9-0.9V12.9z"/>
		<path fill="#FFFFFF" d="M99.6,21.4c-0.3-0.1-0.5-0.4-0.5-0.7c0-0.4,0.3-0.7,0.7-0.7c0.1,0,0.2,0,0.3,0.1c0.7,0.4,1.5,0.6,2.4,0.6
			c1.6,0,2.4-0.8,2.4-2.4v-0.6c-0.6,0.8-1.4,1.4-2.7,1.4c-1.8,0-3.5-1.3-3.5-3.6v0c0-2.3,1.7-3.6,3.5-3.6c1.3,0,2.1,0.6,2.7,1.3
			v-0.4c0-0.5,0.4-0.9,0.9-0.9c0.5,0,0.9,0.4,0.9,0.9v5.3c0,1.3-0.3,2.3-1,2.9c-0.7,0.7-1.8,1-3.2,1
			C101.5,22.1,100.6,21.8,99.6,21.4z M105,15.5L105,15.5c0-1.3-1-2.1-2.3-2.1c-1.2,0-2.2,0.8-2.2,2.1v0c0,1.3,1,2.1,2.2,2.1
			C104,17.6,105,16.8,105,15.5z"/>
		<path fill="#FFFFFF" d="M111.8,19.9c-2.2,0-3.9-1.6-3.9-4v0c0-2.2,1.6-4,3.8-4c2.4,0,3.6,2,3.6,3.8c0,0.5-0.4,0.8-0.8,0.8h-4.8
			c0.2,1.3,1.1,1.9,2.2,1.9c0.7,0,1.3-0.3,1.8-0.7c0.1-0.1,0.2-0.2,0.5-0.2c0.4,0,0.7,0.3,0.7,0.7c0,0.2-0.1,0.4-0.2,0.5
			C113.8,19.5,113,19.9,111.8,19.9z M113.5,15.4c-0.1-1.1-0.8-2-1.9-2c-1.1,0-1.8,0.8-2,2H113.5z"/>
		<path fill="#FFFFFF" d="M116.9,17.6v-4h-0.3c-0.4,0-0.8-0.3-0.8-0.8c0-0.4,0.3-0.8,0.8-0.8h0.3v-1.3c0-0.5,0.4-0.9,0.9-0.9
			c0.5,0,0.9,0.4,0.9,0.9v1.3h1.4c0.4,0,0.8,0.3,0.8,0.8c0,0.4-0.3,0.8-0.8,0.8h-1.4v3.8c0,0.7,0.3,1,0.9,1c0.2,0,0.4,0,0.4,0
			c0.4,0,0.7,0.3,0.7,0.7c0,0.3-0.2,0.6-0.5,0.7c-0.4,0.1-0.7,0.2-1.2,0.2C117.8,19.9,116.9,19.3,116.9,17.6z"/>
		<path fill="#FFFFFF" d="M122.2,19c-0.2-0.1-0.3-0.3-0.3-0.6c0-0.4,0.3-0.7,0.7-0.7c0.1,0,0.3,0,0.4,0.1c0.7,0.5,1.5,0.7,2.2,0.7
			c0.8,0,1.2-0.3,1.2-0.8v0c0-0.6-0.8-0.8-1.7-1.1c-1.1-0.3-2.4-0.8-2.4-2.3v0c0-1.5,1.2-2.3,2.7-2.3c0.8,0,1.7,0.2,2.4,0.6
			c0.2,0.1,0.4,0.4,0.4,0.7c0,0.4-0.3,0.7-0.7,0.7c-0.1,0-0.2,0-0.3-0.1c-0.6-0.3-1.3-0.5-1.8-0.5c-0.7,0-1.1,0.3-1.1,0.8v0
			c0,0.6,0.8,0.8,1.7,1.1c1.1,0.3,2.4,0.9,2.4,2.2v0c0,1.6-1.3,2.4-2.8,2.4C124.1,19.9,123.1,19.6,122.2,19z"/>
	</g>
	<path fill="#FFFFFF" d="M35.7,14.7L35.7,14.7c0-2.9,2.2-5.3,5.3-5.3c3.1,0,5.3,2.4,5.3,5.2v0c0,2.9-2.2,5.3-5.3,5.3
		C37.8,19.9,35.7,17.5,35.7,14.7z M44.4,14.7L44.4,14.7c0-2-1.4-3.6-3.5-3.6c-2,0-3.4,1.6-3.4,3.6v0c0,2,1.4,3.6,3.5,3.6
		C43,18.2,44.4,16.6,44.4,14.7z"/>
</g>
<path fill="#FFFFFF" d="M3.2,22.1c-0.9,0-1.7-0.4-2.3-0.9C0.4,20.5,0,19.7,0,18.9c0-1.8,1.4-3.2,3.2-3.2h10.9v0l7.6,0v6.4L3.2,22.1z
	"/>
<path fill="#FFFFFF" d="M14.1,23.5v3.2c0,1.8-1.4,3.2-3.2,3.2c-0.9,0-1.7-0.4-2.3-0.9c-0.6-0.6-0.9-1.4-0.9-2.3v-3.2H14.1z"/>
<path fill="#FFFFFF" d="M15.3,6.4V3.2c0-1.8,1.4-3.2,3.2-3.2c1.8,0,3.2,1.4,3.2,3.2v3.2H15.3z"/>
<path fill="#FFFFFF" d="M7.7,7.8h18.5c1.8,0,3.2,1.4,3.2,3.2c0,1.8-1.4,3.2-3.2,3.2l-9.1,0l-9.4,0V7.8z"/>
<line fill="none" stroke="#FFFFFF" stroke-miterlimit="10" x1="142.5" y1="0" x2="142.5" y2="30"/>
<g>
	<path fill="#FFFFFF" d="M157.4,9.9c0-0.2,0.2-0.4,0.4-0.4h4.2c1.3,0,2.3,0.4,2.9,1c0.5,0.5,0.7,1.1,0.7,1.8v0c0,1.5-1,2.3-1.9,2.7
		c1.3,0.4,2.5,1.1,2.5,2.7v0c0,1.9-1.6,3.1-4,3.1h-4.5c-0.2,0-0.4-0.2-0.4-0.4V9.9z M161.9,14.7c1.7,0,2.9-0.8,2.9-2.3v0
		c0-1.2-1-2.1-2.8-2.1h-3.8v4.4H161.9z M162.3,20c1.9,0,3.1-0.9,3.1-2.3v0c0-1.4-1.2-2.2-3.4-2.2h-3.8V20H162.3z"/>
	<path fill="#FFFFFF" d="M168.9,9.4c0-0.2,0.2-0.4,0.4-0.4c0.2,0,0.4,0.2,0.4,0.4v11c0,0.2-0.2,0.4-0.4,0.4c-0.2,0-0.4-0.2-0.4-0.4
		V9.4z"/>
	<path fill="#FFFFFF" d="M172.2,16.7L172.2,16.7c0-2.3,1.8-4.3,4.2-4.3c2.4,0,4.2,2,4.2,4.2v0c0,2.3-1.8,4.3-4.2,4.3
		C174,20.9,172.2,19,172.2,16.7z M179.7,16.7L179.7,16.7c0-2-1.5-3.6-3.4-3.6c-1.9,0-3.3,1.6-3.3,3.5v0c0,2,1.5,3.5,3.4,3.5
		C178.3,20.2,179.7,18.6,179.7,16.7z"/>
	<path fill="#FFFFFF" d="M183,22.2c-0.1-0.1-0.2-0.2-0.2-0.4c0-0.2,0.2-0.4,0.4-0.4c0.1,0,0.2,0,0.2,0.1c0.9,0.7,2,1,3.1,1
		c1.9,0,3.2-1.1,3.2-3.2v-1.2c-0.7,1-1.8,1.9-3.4,1.9c-2,0-3.9-1.5-3.9-3.8v0c0-2.4,2-3.9,3.9-3.9c1.6,0,2.7,0.9,3.4,1.8v-1.3
		c0-0.2,0.2-0.4,0.4-0.4c0.2,0,0.4,0.2,0.4,0.4v6.6c0,1.2-0.4,2.1-1,2.8c-0.7,0.7-1.8,1.1-3,1.1C185.3,23.3,184.1,22.9,183,22.2z
		 M189.9,16.3L189.9,16.3c0-1.9-1.7-3.1-3.4-3.1c-1.7,0-3.2,1.2-3.2,3.1v0c0,1.8,1.5,3.1,3.2,3.1C188.2,19.4,189.9,18.1,189.9,16.3z
		"/>
</g>
</svg>
